<!-- public/favicon.svg -->
<svg viewBox="0 0 24 24" xmlns="http://www.w3.org/2000/svg">
  <path
  fill="#22c55e"
   d="M 21.66 14.588 C 20.23 19.922 14.746 23.089 9.412 21.658 C 4.077 20.23 0.91 14.747 2.342 9.413 C 2.898 7.322 4.12 5.468 5.824 4.134 C 8.299 2.188 11.547 1.523 14.588 2.341 C 17.63 3.153 20.111 5.353 21.281 8.276 C 22.09 10.283 22.223 12.499 21.66 14.589 Z M 9.702 6.518 C 9.903 6.331 9.985 6.049 9.917 5.784 C 9.85 5.518 9.642 5.31 9.376 5.243 C 9.111 5.175 8.829 5.257 8.642 5.458 C 8.367 5.754 8.375 6.214 8.66 6.5 C 8.946 6.785 9.406 6.793 9.702 6.518 Z M 12.884 9.7 C 13.209 9.386 13.339 8.921 13.225 8.484 C 13.11 8.047 12.769 7.706 12.332 7.592 C 11.894 7.478 11.43 7.608 11.116 7.933 C 10.642 8.424 10.649 9.203 11.132 9.685 C 11.614 10.167 12.394 10.174 12.884 9.7 Z M 16.066 12.882 C 16.397 12.57 16.533 12.102 16.419 11.661 C 16.306 11.22 15.961 10.875 15.52 10.762 C 15.079 10.648 14.611 10.784 14.299 11.115 C 13.835 11.607 13.847 12.378 14.325 12.856 C 14.803 13.334 15.574 13.346 16.066 12.882 Z M 11.132 14.312 C 10.649 14.794 10.642 15.573 11.116 16.064 C 11.43 16.389 11.894 16.519 12.332 16.405 C 12.769 16.291 13.11 15.95 13.225 15.513 C 13.339 15.076 13.209 14.611 12.884 14.297 C 12.394 13.823 11.614 13.83 11.132 14.312 Z M 9.702 12.882 C 10.033 12.57 10.169 12.102 10.055 11.661 C 9.942 11.22 9.597 10.875 9.156 10.762 C 8.715 10.648 8.247 10.784 7.935 11.115 C 7.471 11.607 7.483 12.378 7.961 12.856 C 8.439 13.334 9.21 13.346 9.702 12.882 Z M 18.541 14.297 C 18.247 14.013 17.779 14.016 17.49 14.306 C 17.2 14.595 17.196 15.063 17.48 15.357 C 17.773 15.65 18.248 15.651 18.541 15.358 C 18.834 15.065 18.835 14.59 18.542 14.297 Z M 15.359 18.539 C 15.554 18.351 15.632 18.072 15.563 17.81 C 15.494 17.547 15.29 17.343 15.027 17.274 C 14.765 17.206 14.486 17.284 14.298 17.479 C 14.014 17.773 14.018 18.241 14.308 18.53 C 14.597 18.82 15.065 18.823 15.359 18.539 Z M 6.52 9.701 C 6.721 9.514 6.803 9.232 6.735 8.967 C 6.668 8.701 6.46 8.493 6.194 8.426 C 5.929 8.358 5.647 8.44 5.46 8.641 C 5.185 8.937 5.193 9.397 5.478 9.683 C 5.764 9.968 6.224 9.976 6.52 9.701 Z M 14.318 6.502 C 14.604 6.787 15.064 6.795 15.36 6.52 C 15.561 6.333 15.643 6.051 15.575 5.786 C 15.508 5.52 15.3 5.312 15.034 5.245 C 14.769 5.177 14.487 5.259 14.3 5.46 C 14.025 5.756 14.033 6.216 14.318 6.502 Z M 6.52 14.298 C 6.333 14.097 6.051 14.015 5.786 14.083 C 5.52 14.15 5.312 14.358 5.245 14.624 C 5.177 14.889 5.259 15.171 5.46 15.358 C 5.756 15.633 6.216 15.625 6.502 15.34 C 6.787 15.054 6.795 14.594 6.52 14.298 Z M 17.481 8.64 C 17.206 8.936 17.214 9.396 17.499 9.682 C 17.785 9.967 18.245 9.975 18.541 9.7 C 18.736 9.512 18.814 9.233 18.745 8.971 C 18.676 8.708 18.472 8.504 18.209 8.435 C 17.947 8.367 17.668 8.445 17.48 8.64 Z M 9.703 17.48 C 9.516 17.279 9.234 17.197 8.969 17.265 C 8.703 17.332 8.495 17.54 8.428 17.806 C 8.36 18.071 8.442 18.353 8.643 18.54 C 8.939 18.815 9.399 18.807 9.685 18.522 C 9.97 18.236 9.978 17.776 9.703 17.48 Z"/>
</svg>
